# xmcd
#
# Track frame offsets:
#	150
#	22456
#	40840
#	58721
#	78087
#	95901
#	113467
#	133501
#	148772
#	168671
#	187235
#	204366
#	222997
#
# Disc length: 3255 seconds
#
# Revision: 1
# Processed by: cddbd v1.5.2PL0 Copyright (c) Steve Scherf et al.
# Submitted via: audiograbber 1.83.01
#
DISCID=c30cb50d
DTITLE=Taylot Swift - Fearless
DYEAR=1900
DGENRE=country
TTITLE0=Fearless
TTITLE1=Fifteen
TTITLE2=Love Story
TTITLE3=Hey Stephan
TTITLE4=White Horse
TTITLE5=You Belong With Me
TTITLE6=Breath
TTITLE7=Tell Me Why
TTITLE8=You're Not Sorry
TTITLE9=Way I Loved You, The
TTITLE10=Forever and Always
TTITLE11=Best Day, The
TTITLE12=Change
EXTD=
EXTT0=
EXTT1=
EXTT2=
EXTT3=
EXTT4=
EXTT5=
EXTT6=
EXTT7=
EXTT8=
EXTT9=
EXTT10=
EXTT11=
EXTT12=
PLAYORDER=
